<svg xmlns="http://www.w3.org/2000/svg" version="1.0" width="1440.000000" height="255.000000" preserveAspectRatio="xMidYMid meet" style=""><rect id="backgroundrect" width="100%" height="100%" x="0" y="0" fill="none" stroke="none"/>
<metadata>
Created by potrace 1.16, written by Peter Selinger 2001-2019
</metadata>

<g class="currentLayer" style=""><title>Layer 1</title><g transform="translate(0,255) scale(0.10000000149011612,-0.10000000149011612) " fill="#365051" stroke="none" id="svg_1" class="" fill-opacity="1">
<path d="M0 1275 l0 -1275 7200 0 7200 0 0 1254 0 1255 -87 -29 c-351 -116 -1452 -462 -1468 -462 -11 0 -466 119 -1012 266 -545 146 -1002 266 -1015 266 -13 0 -656 -121 -1430 -269 l-1408 -269 -1475 269 c-812 148 -1488 269 -1503 269 -15 0 -595 -121 -1288 -269 l-1262 -269 -1213 269 c-668 148 -1220 269 -1226 269 -10 0 -13 -262 -13 -1275z" id="svg_2" fill="#365051" fill-opacity="1"/>
</g></g></svg>