<svg xmlns="http://www.w3.org/2000/svg" width="24" height="24"><rect id="backgroundrect" width="100%" height="100%" x="0" y="0" fill="none" stroke="none"/><g class="currentLayer" style=""><title>Layer 1</title><path d="M12,2C9.243,2,7,4.243,7,7v3H6c-1.103,0-2,0.897-2,2v8c0,1.103,0.897,2,2,2h12c1.103,0,2-0.897,2-2v-8c0-1.103-0.897-2-2-2 h-1V7C17,4.243,14.757,2,12,2z M18,12l0.002,8H6v-8H18z M9,10V7c0-1.654,1.346-3,3-3s3,1.346,3,3v3H9z" id="svg_1" class="selected" fill="#ffffff" fill-opacity="1" stroke="#ffffff" stroke-opacity="1"/></g></svg>